<svg width="20" height="20" fill="none" xmlns="http://www.w3.org/2000/svg">
    <circle cx="10" cy="10" r="9.75" stroke="#fff" stroke-width=".5"/>
    <path d="M8.767 13.394a5.471 5.471 0 0 0 4.247.476 5.571 5.571 0 0 0 1.938-1.03 5.722 5.722 0 0 0 1.408-1.709 5.835 5.835 0 0 0 .484-4.35 5.735 5.735 0 0 0-.998-1.979 5.584 5.584 0 0 0-1.663-1.434l-2.708 5.013-2.708 5.013ZM11.17 6.295a5.472 5.472 0 0 0-4.247-.477 5.57 5.57 0 0 0-1.937 1.03 5.723 5.723 0 0 0-1.409 1.71 5.836 5.836 0 0 0-.483 4.35c.202.72.54 1.393.997 1.978a5.583 5.583 0 0 0 1.663 1.434l2.708-5.013 2.708-5.012Z" fill="#fff"/>
</svg>
