<svg width="109" height="29" viewBox="0 0 109 29" fill="none" xmlns="http://www.w3.org/2000/svg">
<circle cx="14.2951" cy="14.2951" r="13.7951" stroke="black"/>
<path d="M12.5329 19.1464C13.4499 19.6627 14.458 19.9885 15.4997 20.1054C16.5414 20.2222 17.5962 20.1278 18.6041 19.8274C19.6119 19.527 20.5529 19.0267 21.3735 18.3548C22.194 17.683 22.8779 16.8529 23.3863 15.9119C23.8946 14.9709 24.2173 13.9374 24.336 12.8705C24.4547 11.8036 24.3671 10.7241 24.0781 9.69362C23.7891 8.66319 23.3045 7.70201 22.6519 6.86495C21.9992 6.0279 21.1913 5.33137 20.2744 4.81513L16.4036 11.9808L12.5329 19.1464Z" fill="black"/>
<path d="M15.9674 8.99831C15.0504 8.48207 14.0423 8.15623 13.0006 8.03939C11.9589 7.92255 10.9041 8.01701 9.89623 8.31736C8.8884 8.61772 7.94736 9.11809 7.12683 9.78991C6.3063 10.4617 5.62236 11.2918 5.11405 12.2329C4.60574 13.1739 4.28301 14.2073 4.1643 15.2743C4.04559 16.3412 4.13322 17.4207 4.42219 18.4511C4.71115 19.4816 5.19579 20.4428 5.84844 21.2798C6.50109 22.1169 7.30896 22.8134 8.22593 23.3296L12.0967 16.164L15.9674 8.99831Z" fill="black"/>
<path d="M40.3683 21C39.8572 21 39.4623 20.8684 39.1836 20.6051C38.9203 20.3263 38.7887 19.9314 38.7887 19.4204V6.20279C38.7887 5.69174 38.9203 5.30458 39.1836 5.04131C39.4623 4.76256 39.8572 4.62318 40.3683 4.62318H48.6612C49.0484 4.62318 49.3426 4.72384 49.5439 4.92516C49.7607 5.12649 49.8691 5.41298 49.8691 5.78466C49.8691 6.17181 49.7607 6.4738 49.5439 6.69061C49.3426 6.89193 49.0484 6.99259 48.6612 6.99259H41.6459V11.4991H48.1502C48.5528 11.4991 48.8548 11.5998 49.0561 11.8011C49.2574 12.0024 49.3581 12.2967 49.3581 12.6838C49.3581 13.071 49.2574 13.3652 49.0561 13.5665C48.8548 13.7679 48.5528 13.8685 48.1502 13.8685H41.6459V18.6306H48.6612C49.0484 18.6306 49.3426 18.7312 49.5439 18.9326C49.7607 19.1339 49.8691 19.4281 49.8691 19.8153C49.8691 20.2024 49.7607 20.4967 49.5439 20.698C49.3426 20.8993 49.0484 21 48.6612 21H40.3683ZM53.8572 21.1858C53.3926 21.1858 53.0364 21.0619 52.7886 20.8141C52.5408 20.5509 52.417 20.1792 52.417 19.6991V10.9184C52.417 10.4383 52.5408 10.0744 52.7886 9.82659C53.0364 9.57881 53.3849 9.45492 53.834 9.45492C54.2831 9.45492 54.6315 9.57881 54.8793 9.82659C55.1271 10.0744 55.251 10.4383 55.251 10.9184V12.6141L54.9954 11.9172C55.3052 11.1429 55.7852 10.5312 56.4357 10.0821C57.0861 9.63301 57.8604 9.40846 58.7586 9.40846C59.6723 9.40846 60.4234 9.62527 61.0119 10.0589C61.6004 10.4925 62.0107 11.1584 62.243 12.0566H61.9178C62.2276 11.2358 62.7386 10.5932 63.451 10.1286C64.1633 9.6485 64.9841 9.40846 65.9133 9.40846C66.7805 9.40846 67.4929 9.57881 68.0504 9.91951C68.6234 10.2602 69.0493 10.779 69.328 11.4759C69.6068 12.1573 69.7462 13.0245 69.7462 14.0776V19.6991C69.7462 20.1792 69.6145 20.5509 69.3513 20.8141C69.1035 21.0619 68.7473 21.1858 68.2827 21.1858C67.8181 21.1858 67.4619 21.0619 67.2142 20.8141C66.9664 20.5509 66.8425 20.1792 66.8425 19.6991V14.1937C66.8425 13.3265 66.6954 12.6916 66.4011 12.2889C66.1224 11.8863 65.6423 11.685 64.9609 11.685C64.2021 11.685 63.6058 11.956 63.1722 12.498C62.7386 13.0245 62.5218 13.7601 62.5218 14.7048V19.6991C62.5218 20.1792 62.3979 20.5509 62.1501 20.8141C61.9023 21.0619 61.5462 21.1858 61.0816 21.1858C60.617 21.1858 60.253 21.0619 59.9898 20.8141C59.742 20.5509 59.6181 20.1792 59.6181 19.6991V14.1937C59.6181 13.3265 59.471 12.6916 59.1767 12.2889C58.898 11.8863 58.4257 11.685 57.7597 11.685C57.0009 11.685 56.4047 11.956 55.9711 12.498C55.5375 13.0245 55.3206 13.7601 55.3206 14.7048V19.6991C55.3206 20.6903 54.8328 21.1858 53.8572 21.1858ZM77.9219 21.2323C76.7449 21.2323 75.7228 20.9922 74.8556 20.5122C73.9883 20.0321 73.3147 19.3507 72.8346 18.468C72.3545 17.5698 72.1145 16.5167 72.1145 15.3088C72.1145 14.3951 72.2461 13.582 72.5094 12.8697C72.7881 12.1418 73.183 11.5223 73.6941 11.0113C74.2051 10.4848 74.8169 10.0899 75.5292 9.82659C76.2416 9.54784 77.0391 9.40846 77.9219 9.40846C79.0988 9.40846 80.1209 9.6485 80.9882 10.1286C81.8554 10.6087 82.5291 11.29 83.0091 12.1728C83.4892 13.0555 83.7292 14.1008 83.7292 15.3088C83.7292 16.2224 83.5899 17.0432 83.3111 17.7711C83.0478 18.4989 82.6607 19.1261 82.1496 19.6527C81.6386 20.1637 81.0269 20.5586 80.3145 20.8374C79.6021 21.1006 78.8046 21.2323 77.9219 21.2323ZM77.9219 19.0255C78.4949 19.0255 78.9982 18.8861 79.4318 18.6073C79.8654 18.3286 80.1984 17.9182 80.4307 17.3762C80.6784 16.8187 80.8023 16.1295 80.8023 15.3088C80.8023 14.0698 80.5391 13.1484 80.0125 12.5444C79.486 11.925 78.7891 11.6153 77.9219 11.6153C77.3489 11.6153 76.8456 11.7546 76.4119 12.0334C75.9783 12.2967 75.6376 12.707 75.3898 13.2646C75.1576 13.8066 75.0414 14.488 75.0414 15.3088C75.0414 16.5322 75.3047 17.4614 75.8312 18.0963C76.3577 18.7157 77.0546 19.0255 77.9219 19.0255ZM86.6413 21C86.347 21 86.0993 20.9303 85.8979 20.7909C85.7121 20.6361 85.5882 20.4425 85.5263 20.2102C85.4643 19.9779 85.4643 19.7301 85.5263 19.4668C85.6037 19.1881 85.7508 18.9248 85.9676 18.677L91.9841 11.1274V11.8243H86.5019C86.1457 11.8243 85.867 11.7314 85.6656 11.5456C85.4798 11.3443 85.3869 11.0732 85.3869 10.7325C85.3869 10.3764 85.4798 10.1053 85.6656 9.91951C85.867 9.73367 86.1457 9.64075 86.5019 9.64075H93.3778C93.7185 9.64075 93.9973 9.71819 94.2141 9.87305C94.4309 10.0124 94.5703 10.1983 94.6322 10.4306C94.7097 10.6629 94.7174 10.9106 94.6555 11.1739C94.5935 11.4372 94.4541 11.685 94.2373 11.9172L88.1047 19.583V18.8164H93.9121C94.6555 18.8164 95.0271 19.1803 95.0271 19.9082C95.0271 20.2489 94.9265 20.5199 94.7252 20.7212C94.5393 20.9071 94.2683 21 93.9121 21H86.6413ZM100.573 21.2323C99.7524 21.2323 99.0168 21.0774 98.3664 20.7677C97.7314 20.4425 97.2281 20.0089 96.8565 19.4668C96.5003 18.9248 96.3222 18.3131 96.3222 17.6317C96.3222 16.7954 96.539 16.1373 96.9726 15.6572C97.4062 15.1616 98.1109 14.8054 99.0865 14.5886C100.062 14.3718 101.371 14.2634 103.012 14.2634H104.174V15.936H103.036C102.075 15.936 101.309 15.9824 100.736 16.0753C100.163 16.1682 99.7524 16.3309 99.5046 16.5631C99.2723 16.78 99.1562 17.0897 99.1562 17.4923C99.1562 18.0034 99.3343 18.4215 99.6905 18.7467C100.047 19.0719 100.542 19.2345 101.177 19.2345C101.688 19.2345 102.137 19.1184 102.524 18.8861C102.927 18.6383 103.245 18.3054 103.477 17.8872C103.709 17.4691 103.825 16.989 103.825 16.447V13.7756C103.825 13.0013 103.655 12.4438 103.314 12.1031C102.974 11.7624 102.401 11.592 101.595 11.592C101.146 11.592 100.658 11.6462 100.132 11.7546C99.6208 11.863 99.0787 12.0489 98.5058 12.3121C98.2115 12.4515 97.9482 12.4902 97.716 12.4283C97.4991 12.3663 97.3288 12.2425 97.2049 12.0566C97.081 11.8553 97.0191 11.6385 97.0191 11.4062C97.0191 11.1739 97.081 10.9493 97.2049 10.7325C97.3288 10.5002 97.5379 10.3299 97.8321 10.2215C98.5445 9.92725 99.2259 9.71819 99.8763 9.5943C100.542 9.4704 101.146 9.40846 101.688 9.40846C102.803 9.40846 103.717 9.57881 104.429 9.91951C105.157 10.2602 105.699 10.779 106.055 11.4759C106.412 12.1573 106.59 13.04 106.59 14.124V19.6991C106.59 20.1792 106.473 20.5509 106.241 20.8141C106.009 21.0619 105.676 21.1858 105.242 21.1858C104.809 21.1858 104.468 21.0619 104.22 20.8141C103.988 20.5509 103.872 20.1792 103.872 19.6991V18.5841H104.058C103.949 19.1261 103.732 19.5985 103.407 20.0011C103.097 20.3883 102.703 20.6903 102.222 20.9071C101.742 21.1239 101.193 21.2323 100.573 21.2323Z" fill="black"/>
</svg>
